<svg width="27" height="26" viewBox="0 0 27 26" fill="none" xmlns="http://www.w3.org/2000/svg">
<g id="SVG" clip-path="url(#clip0_3_75)">
<g id="Group">
<path id="Vector" d="M13.41 25C10.3296 25 7.52883 23.829 5.40411 21.9211C6.57619 19.1329 9.29995 17.6223 13.3981 17.6223C17.5004 17.6223 20.2304 19.2052 21.4102 21.9996C19.2866 23.9023 16.4853 25 13.41 25ZM13.5546 6.64404C16.1166 6.64404 18.0323 8.62628 18.0323 11.2606C18.0323 13.9698 16.0173 16.1777 13.5546 16.1777C11.0919 16.1777 9.07687 13.9698 9.07687 11.2606C9.07687 8.62628 10.9926 6.64404 13.5546 6.64404ZM13.41 0C6.23039 0 0.410034 5.82036 0.410034 13C0.410034 13.4758 0.439154 13.9443 0.489074 14.4066C0.505714 14.56 0.536394 14.7087 0.558234 14.8606C0.602434 15.1668 0.648194 15.4721 0.713194 15.7711C0.751154 15.9468 0.801074 16.1169 0.846314 16.2895C0.916514 16.5573 0.988274 16.8236 1.07459 17.0846C1.13387 17.2624 1.20095 17.4356 1.26699 17.6098C1.36059 17.8573 1.45887 18.1012 1.56703 18.3409C1.64451 18.513 1.72719 18.6826 1.81247 18.8505C1.92947 19.0824 2.05323 19.3097 2.18375 19.5333C2.27839 19.6955 2.37355 19.8552 2.47495 20.0127C2.61639 20.2327 2.76615 20.4454 2.92007 20.656C3.02771 20.8036 3.13327 20.9513 3.24715 21.0933C3.41615 21.3054 3.59607 21.5072 3.77755 21.7079C3.89195 21.8348 4.00219 21.9648 4.12179 22.0865C4.33239 22.3023 4.55495 22.503 4.77959 22.7032C4.86955 22.7833 4.95067 22.8722 5.04323 22.9502L5.04531 22.9445C7.38426 24.9205 10.3481 26.0032 13.41 26C16.468 26.0035 19.4283 24.9237 21.7659 22.9523C21.7665 22.954 21.767 22.9557 21.7675 22.9575C21.8569 22.8826 21.936 22.7968 22.0223 22.7193C22.2521 22.5155 22.4799 22.3101 22.6946 22.0906C22.8132 21.97 22.9219 21.8416 23.0352 21.7162C23.2183 21.514 23.3998 21.3106 23.5698 21.0969C23.6832 20.9555 23.7887 20.8078 23.8958 20.6612C24.0503 20.4506 24.2011 20.2368 24.3425 20.0164C24.6843 19.4809 24.988 18.9221 25.2515 18.344C25.3596 18.1043 25.4584 17.8604 25.5526 17.6129C25.6186 17.4382 25.6857 17.265 25.7444 17.0867C25.8313 16.8256 25.903 16.5594 25.9732 16.2911C26.0185 16.1184 26.0684 15.9484 26.1064 15.7732C26.1719 15.4736 26.2176 15.1679 26.2618 14.8611C26.2837 14.7092 26.3144 14.561 26.331 14.4076C26.3804 13.9448 26.41 13.4763 26.41 13C26.41 5.82036 20.5897 0 13.41 0Z" fill="#FCB08C"/>
</g>
</g>
<defs>
<clipPath id="clip0_3_75">
<rect width="26" height="26" fill="white" transform="translate(0.410034)"/>
</clipPath>
</defs>
</svg>
