<svg width="29" height="28" viewBox="0 0 29 28" fill="none" xmlns="http://www.w3.org/2000/svg">
<path id="Vector" d="M25.8616 0.801557C25.8616 0.471914 25.6143 0.252151 25.2845 0.252151H21.162C21.162 1.1312 21.162 2.33989 21.162 2.50471C21.162 2.91677 20.8322 3.21894 20.4475 3.30135C20.0352 3.38376 19.6505 3.05412 19.568 2.66953C19.568 2.58712 19.568 2.58712 19.568 2.50471C19.568 2.25748 19.568 1.21361 19.568 0.252151H9.45423C9.45423 1.1312 9.45423 2.25748 9.45423 2.50471C9.45423 2.91677 9.12443 3.30135 8.73967 3.30135C8.32742 3.30135 7.94266 3.05412 7.86021 2.66953C7.86021 2.58712 7.86021 2.58712 7.86021 2.50471C7.86021 2.33989 7.86021 1.1312 7.86021 0.252151H3.73774C3.40794 0.252151 3.18808 0.499384 3.18808 0.801557L0.7146 27.0631C0.7146 27.3928 0.961947 27.64 1.29174 27.64H27.758C28.0878 27.64 28.3351 27.3928 28.3351 27.0631L25.8616 0.801557Z" fill="#FCB08C"/>
</svg>
