<svg width="29" height="28" viewBox="0 0 29 28" fill="none" xmlns="http://www.w3.org/2000/svg">
<rect width="29" height="28" fill="#F5F5F5"/>
<g id="Art Template -1">
<rect width="1920" height="1080" transform="translate(-1405 -120)" fill="#F9FAFA"/>
<g id="div">
<g id="Iframe &#226;&#134;&#146; Body">
<rect id="div.LWbAav" x="-1405" y="-48" width="1920" height="4177.39" fill="white"/>
<g id="div#masterPage">
<g id="Header">
<rect id="div._4XcTfy" x="-1405" y="-48" width="1920" height="120" fill="white"/>
<g id="div.U4Bvut">
<rect id="div.gUbusX" x="-935" y="-48" width="980" height="120" fill="white"/>
<g id="div_2">
<g id="Button - Cart with 0 items" clip-path="url(#clip0_0_1)">
<g id="SVG" clip-path="url(#clip1_0_1)">
<path id="Vector" d="M25.8616 0.801557C25.8616 0.471914 25.6143 0.252151 25.2845 0.252151H21.162C21.162 1.1312 21.162 2.33989 21.162 2.50471C21.162 2.91677 20.8322 3.21894 20.4475 3.30135C20.0352 3.38376 19.6505 3.05412 19.568 2.66953C19.568 2.58712 19.568 2.58712 19.568 2.50471C19.568 2.25748 19.568 1.21361 19.568 0.252151H9.45423C9.45423 1.1312 9.45423 2.25748 9.45423 2.50471C9.45423 2.91677 9.12443 3.30135 8.73967 3.30135C8.32742 3.30135 7.94266 3.05412 7.86021 2.66953C7.86021 2.58712 7.86021 2.58712 7.86021 2.50471C7.86021 2.33989 7.86021 1.1312 7.86021 0.252151H3.73774C3.40794 0.252151 3.18808 0.499384 3.18808 0.801557L0.7146 27.0631C0.7146 27.3928 0.961947 27.64 1.29174 27.64H27.758C28.0878 27.64 28.3351 27.3928 28.3351 27.0631L25.8616 0.801557Z" fill="#FCB08C"/>
<path id="Vector_2" d="M14.676 -5.37925C13.879 -5.37925 14.1264 -5.37925 13.879 -5.37925C13.3294 -5.37925 12.6698 -5.21443 12.1201 -4.9672C11.2407 -4.55515 10.4986 -3.84092 10.0314 -2.96187C9.78405 -2.46741 9.61915 -2.00041 9.5367 -1.42354C9.5367 -1.1763 9.45425 -1.01148 9.45425 -0.791721C9.45425 -0.462078 9.45425 -0.214846 9.45425 0.087327C9.45425 0.499381 9.12445 0.883965 8.73969 0.883965C8.32744 0.883965 7.94268 0.636733 7.86023 0.252149C7.86023 0.169738 7.86023 0.169738 7.86023 0.087327C7.86023 -0.242316 7.86023 -0.544489 7.86023 -0.874132C7.86023 -1.75318 8.10758 -2.63223 8.40989 -3.45634C8.73969 -4.08815 9.12445 -4.74744 9.7016 -5.21443C10.5811 -6.01107 11.543 -6.58795 12.7522 -6.83518C13.137 -6.91759 13.5492 -7 14.0164 -7C14.4287 -7 14.8135 -7 15.2257 -7C16.0227 -7 16.7648 -6.83518 17.3969 -6.50554C18.1114 -6.17589 18.771 -5.79131 19.2382 -5.29684C20.1177 -4.4178 20.6948 -3.45634 20.9972 -2.24764C21.0796 -1.83559 21.1621 -1.3686 21.1621 -0.956542C21.1621 -0.626899 21.1621 -0.324727 21.1621 -0.0774941C21.1621 0.33456 20.8323 0.636733 20.4475 0.719143C20.0627 0.801554 19.6505 0.471911 19.568 0.087327C19.568 0.00491619 19.568 0.00491667 19.568 -0.0774941C19.568 -0.407137 19.568 -0.791721 19.568 -1.12136C19.568 -1.75318 19.4031 -2.33006 19.0733 -2.87946C18.6611 -3.75851 17.9465 -4.50021 17.0671 -4.88479C16.5724 -5.13202 16.1052 -5.37925 15.4456 -5.37925C15.2257 -5.37925 14.676 -5.37925 14.676 -5.37925Z" fill="#FCB08C"/>
<path id="0" d="M14.6138 18.3609C13.8785 18.3609 13.2523 18.1608 12.735 17.7607C12.2178 17.3573 11.8225 16.7733 11.5492 16.0088C11.276 15.2411 11.1393 14.3139 11.1393 13.2273C11.1393 12.1473 11.276 11.225 11.5492 10.4605C11.8258 9.69273 12.2227 9.10716 12.7399 8.70376C13.2604 8.29711 13.8851 8.09378 14.6138 8.09378C15.3425 8.09378 15.9655 8.29711 16.4827 8.70376C17.0033 9.10716 17.4001 9.69273 17.6734 10.4605C17.9499 11.225 18.0882 12.1473 18.0882 13.2273C18.0882 14.3139 17.9516 15.2411 17.6783 16.0088C17.405 16.7733 17.0098 17.3573 16.4925 17.7607C15.9752 18.1608 15.349 18.3609 14.6138 18.3609ZM14.6138 17.2873C15.3425 17.2873 15.9085 16.936 16.3119 16.2333C16.7153 15.5306 16.917 14.5286 16.917 13.2273C16.917 12.362 16.8243 11.6251 16.6389 11.0168C16.4567 10.4084 16.1932 9.94486 15.8484 9.62604C15.5068 9.30723 15.0952 9.14782 14.6138 9.14782C13.8916 9.14782 13.3271 9.50405 12.9205 10.2165C12.5138 10.9257 12.3105 11.9293 12.3105 13.2273C12.3105 14.0927 12.4016 14.8279 12.5838 15.433C12.7659 16.0381 13.0278 16.4984 13.3694 16.814C13.7143 17.1296 14.129 17.2873 14.6138 17.2873Z" fill="white"/>
</g>
</g>
</g>
</g>
</g>
</g>
</g>
</g>
</g>
<defs>
<clipPath id="clip0_0_1">
<rect width="29" height="34.66" fill="white" transform="translate(0 -7)"/>
</clipPath>
<clipPath id="clip1_0_1">
<rect width="29" height="34.64" fill="white" transform="translate(0 -7)"/>
</clipPath>
</defs>
</svg>
